<svg width="25" height="25" viewBox="0 0 25 25" fill="none" xmlns="http://www.w3.org/2000/svg">
<circle cx="12.5" cy="12.5" r="12.5" fill="#003B3E"/>
<path d="M12.5 0C5.60726 0 0 5.60748 0 12.5C0 19.3927 5.60726 25.0004 12.5 25.0004C19.3923 25.0004 25 19.3927 25 12.5C25 5.60748 19.3923 0 12.5 0ZM16.0329 7.891C16.0329 7.95019 16.0093 8.00696 15.9675 8.04881C15.9256 8.09066 15.8689 8.11418 15.8097 8.11418L14.3887 8.11507C13.4512 8.11507 13.2798 8.48018 13.2798 9.19925V10.6909H15.7168C15.7809 10.6909 15.842 10.7186 15.8842 10.7668C15.9264 10.815 15.946 10.8791 15.9382 10.9427L15.5912 13.6281C15.5842 13.682 15.5579 13.7314 15.5172 13.7672C15.4764 13.803 15.4241 13.8228 15.3698 13.8228H13.2798V20.491C13.2798 20.5502 13.2563 20.6069 13.2144 20.6488C13.1726 20.6906 13.1158 20.7142 13.0566 20.7142H10.2839C10.2247 20.7142 10.1679 20.6906 10.1261 20.6488C10.0842 20.6069 10.0607 20.5502 10.0607 20.491V13.8228H7.96398C7.90479 13.8228 7.84802 13.7992 7.80617 13.7574C7.76432 13.7155 7.7408 13.6588 7.7408 13.5996V10.9141C7.7408 10.8549 7.76432 10.7982 7.80617 10.7563C7.84802 10.7145 7.90479 10.6909 7.96398 10.6909H10.0607V8.93345C10.0607 6.60574 11.4694 5.16002 13.7375 5.16002C14.7126 5.16002 15.5742 5.23255 15.8389 5.26759C15.8926 5.27467 15.9418 5.30101 15.9775 5.3417C16.0132 5.38238 16.0328 5.43464 16.0329 5.48875V7.891Z" fill="white"/>
</svg>
