<svg width="25" height="25" viewBox="0 0 25 25" fill="none" xmlns="http://www.w3.org/2000/svg">
<circle cx="12.5" cy="12.5" r="12.5" fill="#003B3E"/>
<path d="M17.5757 8.66032C17.4672 8.37939 17.3011 8.1243 17.0881 7.91148C16.875 7.69865 16.6197 7.53281 16.3387 7.42464C15.9517 7.28132 15.543 7.20556 15.1304 7.20068C14.4442 7.16943 14.2384 7.16162 12.5002 7.16162C10.7619 7.16162 10.5562 7.16943 9.86995 7.20068C9.45688 7.20541 9.0477 7.28117 8.66032 7.42464C8.37939 7.53311 8.1243 7.69922 7.91148 7.91227C7.69865 8.12532 7.53281 8.38058 7.42464 8.66162C7.28132 9.04859 7.20556 9.45732 7.20068 9.86995C7.16943 10.5562 7.16162 10.7619 7.16162 12.5002C7.16162 14.2384 7.16943 14.4442 7.20068 15.1304C7.20541 15.5434 7.28117 15.9526 7.42464 16.34C7.53311 16.6209 7.69922 16.876 7.91227 17.0888C8.12532 17.3017 8.38058 17.4675 8.66162 17.5757C9.04859 17.719 9.45732 17.7948 9.86995 17.7996C10.5562 17.8309 10.7619 17.8387 12.5002 17.8387C14.2384 17.8387 14.4442 17.8309 15.1304 17.7996C15.5434 17.7949 15.9526 17.7192 16.34 17.5757C16.6209 17.4672 16.876 17.3011 17.0888 17.0881C17.3017 16.875 17.4675 16.6197 17.5757 16.3387C17.719 15.9517 17.7948 15.543 17.7996 15.1304C17.8309 14.4442 17.8387 14.2384 17.8387 12.5002C17.8387 10.7619 17.8309 10.5562 17.7996 9.86995C17.7949 9.45688 17.7192 9.0477 17.5757 8.66032ZM12.5002 15.8439C11.8388 15.8439 11.1924 15.6478 10.6425 15.2804C10.0926 14.913 9.66402 14.3907 9.41094 13.7798C9.15786 13.1688 9.09164 12.4965 9.22066 11.8478C9.34968 11.1992 9.66814 10.6034 10.1358 10.1358C10.6034 9.66814 11.1992 9.34968 11.8478 9.22066C12.4965 9.09164 13.1688 9.15786 13.7798 9.41094C14.3907 9.66402 14.913 10.0926 15.2804 10.6425C15.6478 11.1924 15.8439 11.8388 15.8439 12.5002C15.8439 13.387 15.4916 14.2375 14.8645 14.8645C14.2375 15.4916 13.387 15.8439 12.5002 15.8439ZM15.9754 9.80615C15.8209 9.80615 15.6699 9.76033 15.5414 9.67449C15.4129 9.58864 15.3128 9.46663 15.2536 9.32387C15.1945 9.18112 15.179 9.02404 15.2092 8.87249C15.2393 8.72094 15.3137 8.58173 15.423 8.47247C15.5323 8.36321 15.6715 8.28881 15.823 8.25866C15.9746 8.22852 16.1316 8.24399 16.2744 8.30312C16.4171 8.36225 16.5392 8.46239 16.625 8.59086C16.7109 8.71934 16.7567 8.87039 16.7567 9.0249C16.7567 9.2321 16.6744 9.43082 16.5278 9.57733C16.3813 9.72384 16.1826 9.80615 15.9754 9.80615Z" fill="white"/>
<path d="M12.5002 14.6707C13.6989 14.6707 14.6707 13.6989 14.6707 12.5002C14.6707 11.3014 13.6989 10.3296 12.5002 10.3296C11.3014 10.3296 10.3296 11.3014 10.3296 12.5002C10.3296 13.6989 11.3014 14.6707 12.5002 14.6707Z" fill="white"/>
<path d="M12.5 0C10.0277 0 7.61099 0.733112 5.55538 2.10663C3.49976 3.48015 1.89761 5.43238 0.951511 7.71645C0.00541603 10.0005 -0.242126 12.5139 0.24019 14.9386C0.722505 17.3634 1.91301 19.5907 3.66117 21.3388C5.40933 23.087 7.63661 24.2775 10.0614 24.7598C12.4861 25.2421 14.9995 24.9946 17.2835 24.0485C19.5676 23.1024 21.5199 21.5002 22.8934 19.4446C24.2669 17.389 25 14.9723 25 12.5C25 9.18479 23.683 6.00537 21.3388 3.66116C18.9946 1.31696 15.8152 0 12.5 0ZM18.9714 15.1849C18.9602 15.7247 18.8576 16.2588 18.668 16.7643C18.5008 17.1967 18.245 17.5894 17.9172 17.9172C17.5894 18.245 17.1967 18.5007 16.7643 18.668C16.2588 18.8576 15.7247 18.9602 15.1849 18.9713C14.4896 19.0026 14.2682 19.0104 12.5 19.0104C10.7318 19.0104 10.5104 19.0026 9.81511 18.9713C9.27527 18.9602 8.74123 18.8576 8.23568 18.668C7.80329 18.5007 7.4106 18.245 7.08278 17.9172C6.75497 17.5894 6.49925 17.1967 6.33204 16.7643C6.1424 16.2588 6.03982 15.7247 6.02865 15.1849C5.9974 14.4896 5.98959 14.2682 5.98959 12.5C5.98959 10.7318 5.9974 10.5104 6.02865 9.8151C6.03982 9.27527 6.1424 8.74123 6.33204 8.23567C6.49925 7.80328 6.75497 7.41059 7.08278 7.08278C7.4106 6.75496 7.80329 6.49925 8.23568 6.33203C8.74123 6.1424 9.27527 6.03981 9.81511 6.02864C10.5104 5.99739 10.7318 5.98958 12.5 5.98958C14.2682 5.98958 14.4896 5.99739 15.1849 6.02864C15.7247 6.03981 16.2588 6.1424 16.7643 6.33203C17.1967 6.49925 17.5894 6.75496 17.9172 7.08278C18.245 7.41059 18.5008 7.80328 18.668 8.23567C18.8576 8.74123 18.9602 9.27527 18.9714 9.8151C19.0026 10.5104 19.0104 10.7318 19.0104 12.5C19.0104 14.2682 19.0026 14.4896 18.9714 15.1849Z" fill="white"/>
</svg>
